<?xml version="1.0" encoding="UTF-8" standalone="no" ?>
<!DOCTYPE svg PUBLIC "-//W3C//DTD SVG 1.1//EN" "http://www.w3.org/Graphics/SVG/1.1/DTD/svg11.dtd">
<svg xmlns="http://www.w3.org/2000/svg" xmlns:xlink="http://www.w3.org/1999/xlink" version="1.1" width="25" height="27" viewBox="0 0 16.67 18" xml:space="preserve">
<desc>Created with Fabric.js 3.6.3</desc>
<defs>
</defs>
<g transform="matrix(1 0 0 1 7.41 9.76)"  >
<g style=""   >
		<g transform="matrix(1 0 0 1 0.86 -0.8)" id="Vrstva_1"  >
<path style="stroke: none; stroke-width: 1; stroke-dasharray: none; stroke-linecap: butt; stroke-dashoffset: 0; stroke-linejoin: miter; stroke-miterlimit: 4; fill: rgb(228,0,58); fill-rule: nonzero; opacity: 1;"  transform=" translate(-10.86, -12.2)" d="M 10.86 19.8 a 7.6 7.6 0 1 1 7.6 -7.6 A 7.6 7.6 0 0 1 10.86 19.8 Z" stroke-linecap="round" />
</g>
		<g transform="matrix(1 0 0 1 0.81 -1.08)" id="Vrstva_1"  >
<path style="stroke: none; stroke-width: 1; stroke-dasharray: none; stroke-linecap: butt; stroke-dashoffset: 0; stroke-linejoin: miter; stroke-miterlimit: 4; fill: rgb(255,255,255); fill-rule: nonzero; opacity: 1;"  transform=" translate(-10.81, -11.92)" d="M 8.46 13.2 h -0.8 c -0.3 0 -0.4 -0.1 -0.4 -0.4 a 0.43 0.43 0 0 1 0.4 -0.4 h 0.9 a 0.35 0.35 0 0 0 0.2 -0.1 a 1.42 1.42 0 0 0 0.2 -0.6 h -0.7 a 0.4 0.4 0 1 1 0 -0.8 h 0.8 c 0.1 0 0.2 0 0.2 -0.1 A 23.29 23.29 0 0 0 10.36 8 a 0.1 0.1 0 0 1 0.1 -0.1 c 0.1 -0.2 0.2 -0.3 0.4 -0.3 s 0.3 0.1 0.4 0.3 c 0.2 0.6 0.4 1.1 0.6 1.7 c 0.2 0.4 0.3 0.8 0.5 1.2 c 0 0.1 0.1 0.1 0.2 0.1 h 0.8 a 0.37 0.37 0 0 1 0.4 0.4 a 0.43 0.43 0 0 1 -0.4 0.4 h -0.7 a 4.88 4.88 0 0 0 0.3 0.7 a 0.35 0.35 0 0 0 0.2 0.1 h 0.9 c 0.1 0 0.3 0.1 0.3 0.2 a 0.6 0.6 0 0 1 -0.1 0.4 a 0.37 0.37 0 0 1 -0.3 0.1 h -0.8 a 3.55 3.55 0 0 0 0.4 0.9 l 0.6 1.5 c 0.1 0.3 0.1 0.5 -0.2 0.6 s -0.4 0 -0.5 -0.3 c -0.3 -0.9 -0.7 -1.7 -1 -2.6 c -0.1 -0.2 -0.1 -0.2 -0.3 -0.2 H 9.26 c -0.2 0 -0.2 0 -0.3 0.2 a 18.61 18.61 0 0 1 -1 2.5 c -0.1 0.2 -0.2 0.3 -0.4 0.3 a 0.27 0.27 0 0 1 -0.3 -0.3 a 0.37 0.37 0 0 1 0.1 -0.3 c 0.3 -0.7 0.5 -1.4 0.8 -2.1 C 8.36 13.4 8.36 13.3 8.46 13.2 Z m 1 -0.8 h 2.7 c -0.1 -0.2 -0.2 -0.5 -0.3 -0.7 a 0.35 0.35 0 0 0 -0.2 -0.1 H 9.86 c -0.1 0 -0.1 0 -0.2 0.1 A 1.45 1.45 0 0 1 9.46 12.4 Z m 2.2 -1.5 c -0.3 -0.7 -0.5 -1.3 -0.8 -2 c -0.3 0.7 -0.5 1.3 -0.8 2 Z" stroke-linecap="round" />
</g>
</g>
</g>
</svg>